HIERARCHY
ROOT Hips
{
 OFFSET 0.000000 0.000000 0.000000
 CHANNELS 6 Xposition Yposition Zposition Yrotation Xrotation Zrotation
 JOINT Chest
 {
  OFFSET 0.000000 9.585900 0.002600
  CHANNELS 3 Yrotation Xrotation Zrotation
  JOINT Chest2
  {
   OFFSET 0.000000 9.601200 -0.005300
   CHANNELS 3 Yrotation Xrotation Zrotation
   JOINT Chest3
   {
    OFFSET 0.000000 9.561800 0.000000
    CHANNELS 3 Yrotation Xrotation Zrotation
    JOINT Chest4
    {
     OFFSET 0.000000 9.552100 0.000000
     CHANNELS 3 Yrotation Xrotation Zrotation
     JOINT Neck
     {
      OFFSET 0.000000 14.453000 0.000000
      CHANNELS 3 Yrotation Xrotation Zrotation
      JOINT Head
      {
       OFFSET 0.000000 8.936500 -0.011300
       CHANNELS 3 Yrotation Xrotation Zrotation
       End Site
       {
        OFFSET 0.000000 17.073600 -0.006000
       }
      }
     }
     JOINT RightCollar
     {
      OFFSET -2.921100 9.558500 0.000000
      CHANNELS 3 Yrotation Xrotation Zrotation
      JOINT RightShoulder
      {
       OFFSET -13.519700 0.000000 0.000000
       CHANNELS 3 Yrotation Xrotation Zrotation
       JOINT RightElbow
       {
        OFFSET 0.000000 -29.696600 0.000000
        CHANNELS 3 Yrotation Xrotation Zrotation
        JOINT RightWrist
        {
         OFFSET 0.000000 -24.004700 0.000000
         CHANNELS 3 Yrotation Xrotation Zrotation
         End Site
         {
          OFFSET 0.000000 -17.728500 0.000000
         }
        }
       }
      }
     }
     JOINT LeftCollar
     {
      OFFSET 2.921100 9.558500 0.000000
      CHANNELS 3 Yrotation Xrotation Zrotation
      JOINT LeftShoulder
      {
       OFFSET 13.519700 0.000000 0.000000
       CHANNELS 3 Yrotation Xrotation Zrotation
       JOINT LeftElbow
       {
        OFFSET 0.000000 -29.696600 0.000000
        CHANNELS 3 Yrotation Xrotation Zrotation
        JOINT LeftWrist
        {
         OFFSET 0.000000 -24.004700 0.000000
         CHANNELS 3 Yrotation Xrotation Zrotation
         End Site
         {
          OFFSET 0.000000 -17.728500 0.000000
         }
        }
       }
      }
     }
    }
   }
  }
 }
 JOINT RightHip
 {
  OFFSET -7.771700 -0.012900 -0.001300
  CHANNELS 3 Yrotation Xrotation Zrotation
  JOINT RightKnee
  {
   OFFSET 0.000000 -40.869800 0.001200
   CHANNELS 3 Yrotation Xrotation Zrotation
   JOINT RightAnkle
   {
    OFFSET 0.000000 -39.717900 0.002100
    CHANNELS 3 Yrotation Xrotation Zrotation
    JOINT RightToe
    {
     OFFSET 0.000000 -4.965400 11.033500
     CHANNELS 3 Yrotation Xrotation Zrotation
     End Site
     {
      OFFSET 0.000000 -1.423100 5.872300
     }
    }
   }
  }
 }
 JOINT LeftHip
 {
  OFFSET 7.771700 -0.012900 -0.001300
  CHANNELS 3 Yrotation Xrotation Zrotation
  JOINT LeftKnee
  {
   OFFSET 0.000000 -40.869800 0.001200
   CHANNELS 3 Yrotation Xrotation Zrotation
   JOINT LeftAnkle
   {
    OFFSET 0.000000 -39.717900 0.002100
    CHANNELS 3 Yrotation Xrotation Zrotation
    JOINT LeftToe
    {
     OFFSET 0.000000 -4.965400 11.033500
     CHANNELS 3 Yrotation Xrotation Zrotation
     End Site
     {
      OFFSET 0.000000 -1.423100 5.872300
     }
    }
   }
  }
 }
}
MOTION
Frames: 13
Frame Time: 0.008333
-122.734345 58.122757 102.335556 178.295976 -28.647210 -0.752371 1.597486 20.803128 2.670096 0.137182 2.711545 0.293098 0.232341 4.439960 0.486968 1.189044 17.773739 2.099759 -0.905596 15.510306 -2.201095 -0.880810 -7.129265 -3.813625 3.190991 -3.896391 -0.725046 9.909240 -13.459200 -20.432773 145.292760 -73.597164 -105.335928 19.456886 -18.775587 -49.516077 -7.648867 -5.030965 -3.181850 -0.862958 -9.068430 3.173624 -125.066142 -72.790659 93.320567 -8.885683 -17.461096 29.460028 5.310527 -46.040736 -5.135277 -7.207019 68.096594 -9.213470 6.095423 20.924011 7.128635 -0.135813 -14.700785 0.575683 -7.306639 -43.992853 -0.476873 25.397872 64.220374 24.249525 -15.475261 5.900898 -3.446417 0.016249 -0.023084 0.008924
-122.733532 58.123213 102.335549 178.299500 -28.631783 -0.752863 1.596985 20.805077 2.674959 0.135615 2.705261 0.292670 0.231078 4.437942 0.484546 1.187088 17.778973 2.106228 -0.907397 15.451735 -2.220309 -0.873403 -7.228071 -3.844706 3.205541 -3.914061 -0.741408 9.901367 -13.461655 -20.443057 145.321774 -73.600665 -105.350242 19.455843 -18.772384 -49.518828 -7.655351 -5.047996 -3.180654 -0.879003 -9.074158 3.174537 -125.042732 -72.796944 93.310744 -8.888900 -17.464358 29.459301 5.331723 -46.052405 -5.156731 -7.193056 68.095873 -9.180590 6.082878 20.916263 7.115938 -0.130411 -14.692058 0.581168 -7.313561 -44.007351 -0.471216 25.398715 64.221267 24.245931 -15.473012 5.900000 -3.440792 0.011113 -0.023304 0.005208
-122.731771 58.124160 102.335115 178.302325 -28.624555 -0.755836 1.596180 20.803381 2.677299 0.136528 2.709906 0.293448 0.228132 4.435952 0.485531 1.186591 17.776483 2.107711 -0.906334 15.352434 -2.247512 -0.866795 -7.280506 -3.863420 3.215992 -3.925731 -0.750647 9.897479 -13.463752 -20.458759 145.361919 -73.615718 -105.368339 19.458347 -18.773615 -49.530420 -7.662500 -5.061065 -3.175144 -0.887896 -9.075328 3.175264 -125.030382 -72.800337 93.297693 -8.889848 -17.464858 29.464230 5.367503 -46.056847 -5.175082 -7.206843 68.097294 -9.173613 6.066331 20.910898 7.107426 -0.128307 -14.687366 0.590753 -7.326823 -44.011412 -0.458609 25.410121 64.218119 24.250910 -15.479467 5.896492 -3.441174 0.009134 -0.021284 0.004035
-122.730105 58.124322 102.336442 178.302773 -28.610533 -0.755365 1.593494 20.809788 2.679325 0.136221 2.708337 0.293780 0.229948 4.425313 0.483888 1.185696 17.774419 2.109425 -0.907520 15.298136 -2.262914 -0.861964 -7.381151 -3.892414 3.228602 -3.941633 -0.763452 9.892743 -13.464063 -20.475426 145.423385 -73.635005 -105.411297 19.452697 -18.790076 -49.503409 -7.684614 -5.081084 -3.163176 -0.880345 -9.069948 3.171697 -125.008272 -72.806916 93.279149 -8.890624 -17.468001 29.469827 5.386657 -46.071103 -5.183705 -7.211936 68.095601 -9.172461 6.056020 20.913820 7.103566 -0.127370 -14.686531 0.597198 -7.329874 -44.024632 -0.455402 25.416572 64.213556 24.258512 -15.478808 5.899655 -3.443024 0.002736 -0.023705 0.002816
-122.727974 58.123958 102.339020 178.306585 -28.592829 -0.758444 1.590389 20.802189 2.682192 0.135958 2.707953 0.294058 0.229553 4.424733 0.484342 1.184386 17.773383 2.111238 -0.908278 15.266098 -2.273243 -0.863531 -7.507795 -3.923798 3.238574 -3.952199 -0.777036 9.890222 -13.468745 -20.484737 145.443579 -73.645621 -105.411865 19.453613 -18.795227 -49.504859 -7.696600 -5.090188 -3.160535 -0.902816 -9.078262 3.189425 -124.998671 -72.819403 93.281817 -8.891535 -17.460971 29.480996 5.398491 -46.090938 -5.188001 -7.207261 68.095676 -9.163401 6.044057 20.918822 7.097804 -0.125129 -14.687672 0.604566 -7.345633 -44.040433 -0.444456 25.418788 64.207463 24.261036 -15.478206 5.901428 -3.450439 0.013134 -0.024462 0.003597
-122.727105 58.123688 102.341479 178.308056 -28.579348 -0.752834 1.585605 20.798847 2.675915 0.135654 2.707568 0.294369 0.229433 4.422384 0.484491 1.184157 17.770836 2.111604 -0.910083 15.238541 -2.281279 -0.864939 -7.636535 -3.955233 3.246316 -3.958001 -0.786834 9.888964 -13.472505 -20.491395 145.454173 -73.651379 -105.407694 19.454137 -18.795559 -49.514620 -7.708079 -5.094387 -3.156276 -0.905491 -9.081376 3.198380 -125.004883 -72.825076 93.284258 -8.894183 -17.457972 29.488227 5.411792 -46.107164 -5.198658 -7.206476 68.096229 -9.163133 6.038255 20.923960 7.096478 -0.115244 -14.689447 0.606359 -7.355114 -44.052763 -0.440592 25.421749 64.202710 24.253461 -15.469426 5.906018 -3.446237 0.010563 -0.025362 0.001140
-122.725964 58.123155 102.344477 178.312554 -28.564310 -0.751353 1.579351 20.790973 2.671966 0.135559 2.708310 0.295766 0.229555 4.416969 0.482879 1.183010 17.772525 2.114113 -0.914014 15.186423 -2.293303 -0.860167 -7.739965 -3.985203 3.257152 -3.959948 -0.801088 9.883768 -13.477089 -20.493203 145.481868 -73.653879 -105.419657 19.456142 -18.789543 -49.526650 -7.708778 -5.098425 -3.157994 -0.917576 -9.079942 3.211589 -125.015471 -72.831590 93.284043 -8.901485 -17.456434 29.508945 5.411544 -46.124431 -5.203520 -7.165371 68.096578 -9.125522 6.026308 20.930882 7.093324 -0.113762 -14.692237 0.608845 -7.358596 -44.067790 -0.440394 25.422197 64.197431 24.250286 -15.472545 5.911232 -3.438438 0.000088 -0.028314 -0.003720
-122.725477 58.121869 102.348773 178.323564 -28.540294 -0.751033 1.566917 20.769457 2.665537 0.135610 2.709342 0.296995 0.228359 4.420376 0.482516 1.182472 17.771945 2.121024 -0.917951 15.091543 -2.320951 -0.854301 -7.801626 -4.004685 3.270405 -3.960778 -0.821853 9.874959 -13.482957 -20.491592 145.533486 -73.659817 -105.443081 19.465649 -18.776602 -49.540105 -7.713602 -5.106148 -3.157945 -0.916502 -9.077502 3.211121 -125.023051 -72.835163 93.297389 -8.902359 -17.457728 29.508090 5.404451 -46.149980 -5.211810 -7.124835 68.097389 -9.089132 6.015236 20.931748 7.089721 -0.112216 -14.689804 0.610291 -7.371286 -44.094082 -0.439222 25.432954 64.190475 24.254780 -15.471420 5.920674 -3.435507 -0.004525 -0.031697 -0.005193
-122.724316 58.121709 102.350879 178.328468 -28.529425 -0.753627 1.563452 20.764757 2.670459 0.134953 2.705716 0.294781 0.228139 4.421116 0.485375 1.183578 17.772850 2.121877 -0.920821 15.024611 -2.337760 -0.852492 -7.888347 -4.030773 3.275896 -3.960030 -0.833150 9.868047 -13.487805 -20.490322 145.553211 -73.662525 -105.454540 19.458004 -18.783148 -49.534164 -7.733246 -5.107083 -3.150413 -0.905064 -9.078997 3.206612 -125.026180 -72.835050 93.290936 -8.904412 -17.457842 29.521203 5.393925 -46.160426 -5.208513 -7.097603 68.093358 -9.068456 6.016151 20.934440 7.094670 -0.117338 -14.688915 0.608568 -7.380924 -44.105742 -0.432927 25.468097 64.183223 24.285389 -15.484475 5.922354 -3.436605 -0.003895 -0.033434 -0.005230
-122.723038 58.122433 102.351161 178.331949 -28.527207 -0.758302 1.567804 20.771026 2.678040 0.134920 2.705348 0.295133 0.227755 4.420626 0.485892 1.181253 17.768597 2.126186 -0.923849 14.971220 -2.353668 -0.850837 -7.987304 -4.060155 3.278566 -3.960336 -0.841645 9.866999 -13.489562 -20.501714 145.599081 -73.677077 -105.475391 19.461146 -18.781180 -49.545720 -7.744683 -5.108911 -3.147326 -0.910408 -9.081321 3.215917 -125.022790 -72.840154 93.289043 -8.890271 -17.461617 29.512625 5.381603 -46.160511 -5.200958 -7.073028 68.090898 -9.048030 6.012865 20.930414 7.095614 -0.119856 -14.684318 0.607595 -7.385999 -44.106842 -0.426545 25.482206 64.180394 24.301857 -15.496785 5.920228 -3.441986 0.000512 -0.033700 -0.003781
-122.722218 58.123101 102.351188 178.340126 -28.521454 -0.764726 1.564149 20.772773 2.683718 0.135110 2.708948 0.296023 0.226877 4.414590 0.486786 1.181584 17.765652 2.127211 -0.925221 14.919528 -2.368242 -0.847741 -8.085698 -4.090638 3.277729 -3.961286 -0.846122 9.873742 -13.482575 -20.515665 145.626926 -73.682637 -105.504175 19.456616 -18.785172 -49.545355 -7.755823 -5.108677 -3.141864 -0.917812 -9.083032 3.237442 -125.040428 -72.864804 93.309580 -8.888458 -17.463827 29.515782 5.371070 -46.162569 -5.197905 -7.064223 68.089920 -9.038757 6.011045 20.916637 7.092555 -0.119907 -14.673304 0.608891 -7.395435 -44.112590 -0.421667 25.503295 64.177912 24.323866 -15.507872 5.918388 -3.443356 -0.002494 -0.035799 -0.004073
-122.722206 58.124160 102.350116 178.342304 -28.517335 -0.765272 1.562587 20.775348 2.683179 0.134989 2.703831 0.296223 0.228164 4.418205 0.488073 1.181133 17.761258 2.127218 -0.924620 14.870730 -2.379189 -0.842809 -8.185118 -4.121096 3.276441 -3.961913 -0.846261 9.877862 -13.477327 -20.522870 145.641047 -73.683697 -105.520953 19.443038 -18.792419 -49.530564 -7.763028 -5.106320 -3.135694 -0.923269 -9.083460 3.242081 -125.032400 -72.881609 93.280130 -8.904887 -17.464295 29.546010 5.373218 -46.162308 -5.200901 -7.079233 68.089694 -9.051199 6.014979 20.897736 7.089288 -0.116412 -14.659165 0.611105 -7.392011 -44.113695 -0.425772 25.519270 64.173494 24.341806 -15.510510 5.911338 -3.443292 -0.011815 -0.032674 -0.002874
-122.723108 58.125009 102.348912 178.347831 -28.508291 -0.763575 1.558295 20.776203 2.681411 0.134936 2.703136 0.296943 0.229863 4.423677 0.491894 1.177713 17.752402 2.127965 -0.927962 14.841426 -2.391115 -0.836212 -8.308212 -4.155377 3.281656 -3.956605 -0.860238 9.872034 -13.484675 -20.522909 145.660945 -73.685487 -105.531844 19.444031 -18.790886 -49.537408 -7.770493 -5.108964 -3.132815 -0.929976 -9.084293 3.242553 -125.028517 -72.891005 93.279058 -8.909209 -17.466529 29.550968 5.375371 -46.168533 -5.209102 -7.075974 68.093343 -9.049456 6.015314 20.879139 7.086781 -0.120229 -14.646592 0.616329 -7.386529 -44.119928 -0.435526 25.520228 64.170149 24.346845 -15.509823 5.907290 -3.441837 -0.004321 -0.033236 -0.004076
